<svg xmlns="http://www.w3.org/2000/svg" xmlns:xlink="http://www.w3.org/1999/xlink" viewBox="0 0 1504 538"><defs><style>.ae9ac15f-2aa5-4efa-a0be-b6a2b62c7382,.b26fc574-1f0c-4b0f-9623-34c73da1090d,.ea956cf4-d157-43a6-b93f-9a400a14d8f0,.fa4ea571-16bb-4962-a7a0-00274cdca7cf{fill:none;}.ad30b058-daae-422e-ac81-d84aa017b0dc,.ae9ac15f-2aa5-4efa-a0be-b6a2b62c7382{stroke:#520cb3;}.a61fe62c-0fb5-4c53-979e-19ae3002304c,.ad30b058-daae-422e-ac81-d84aa017b0dc,.ae9ac15f-2aa5-4efa-a0be-b6a2b62c7382,.b26fc574-1f0c-4b0f-9623-34c73da1090d,.b5aed927-f231-4260-ab48-495f9506ca31,.fa4ea571-16bb-4962-a7a0-00274cdca7cf{stroke-miterlimit:10;}.ae9ac15f-2aa5-4efa-a0be-b6a2b62c7382,.b26fc574-1f0c-4b0f-9623-34c73da1090d,.fa4ea571-16bb-4962-a7a0-00274cdca7cf{stroke-width:8px;}.b26fc574-1f0c-4b0f-9623-34c73da1090d{stroke:#fc0;}.a61fe62c-0fb5-4c53-979e-19ae3002304c,.fa4ea571-16bb-4962-a7a0-00274cdca7cf{stroke:#0d65bd;}.b5aed927-f231-4260-ab48-495f9506ca31,.f1626f12-7108-44eb-94e3-2cf8f8150ce9{fill:#d18600;}.a4129dba-638b-4d5c-b167-8155b16ef0d0,.ad30b058-daae-422e-ac81-d84aa017b0dc{fill:#520cb3;}.a61fe62c-0fb5-4c53-979e-19ae3002304c,.e43eb749-0a03-49cb-bc43-a7b23cb85949{fill:#0d65bd;}.a61fe62c-0fb5-4c53-979e-19ae3002304c,.ad30b058-daae-422e-ac81-d84aa017b0dc,.b5aed927-f231-4260-ab48-495f9506ca31{stroke-width:3px;}.b5aed927-f231-4260-ab48-495f9506ca31{stroke:#d18600;}.a8dcb554-1b63-404f-a714-2316377cc8fc{clip-path:url(#ab89efcd-879e-4561-99d9-af90a5972a5e);}</style><clipPath id="ab89efcd-879e-4561-99d9-af90a5972a5e"><rect id="f9b9db6d-fc02-4329-ba33-54fe6a4d7049" data-name="SVGID" class="ea956cf4-d157-43a6-b93f-9a400a14d8f0" x="12.5" y="15" width="1474" height="349" rx="12"/></clipPath></defs><title>about_us_desk</title><g id="b209aa6d-c089-4f25-976b-e53d9dbbbd0a" data-name="Layer 2"><g id="e98780d9-eb82-48e3-bdb8-79ece08ba2af" data-name="About Us Illustration"><rect class="ae9ac15f-2aa5-4efa-a0be-b6a2b62c7382" x="26" y="4" width="1474" height="349" rx="12"/><rect class="b26fc574-1f0c-4b0f-9623-34c73da1090d" x="14" y="14" width="1474" height="349" rx="12"/><rect class="fa4ea571-16bb-4962-a7a0-00274cdca7cf" x="4" y="25" width="1474" height="349" rx="12"/><path class="f1626f12-7108-44eb-94e3-2cf8f8150ce9" d="M1052.63,278c29.87-5.42,51.19-30.65,61.36-57.86,12.19-32.62,5.41-69-.75-102.14-1.83-9.79-14.18-16.25-23.38-13.27-10.47,3.39-15.22,12.88-13.27,23.37,1.43,7.63,2.84,15.26,4,22.93.1.66.83,6.09.4,2.64.2,1.6.38,3.2.56,4.81.37,3.52.67,7,.86,10.58a148.16,148.16,0,0,1-.48,23c-.4,4,.53-1.79-.4,2.54-.32,1.49-.57,3-.9,4.48-.64,2.79-1.41,5.55-2.32,8.26-.38,1.14-.82,2.26-1.22,3.4-1.4,4.07,1.41-2.79-.33.78-1.27,2.6-2.56,5.17-4,7.66a47.76,47.76,0,0,1-4.8,7.15c1.59-1.8,1.27-1.62-.16,0-.93,1.07-1.89,2.12-2.88,3.13-1.61,1.65-3.63,4.2-5.71,5.21,4-2,.4-.36-.64.33s-2.34,1.5-3.54,2.18-2.45,1.3-3.7,1.91c-3.44,1.71,3.44-.9-.6.18-2.74.73-5.36,1.57-8.16,2.08-9.8,1.77-16.23,14.21-13.27,23.37,3.4,10.51,12.87,15.17,23.37,13.27Z"/><path class="f1626f12-7108-44eb-94e3-2cf8f8150ce9" d="M968.3,231.82c-2.91-1.83-5.69-3.79-8.5-5.76-3.11-2.18,2.44,2-1.36-1.07-1.33-1.08-2.63-2.18-3.92-3.31a142.08,142.08,0,0,1-13.41-13.47c-1.29-1.48-2.52-3-3.76-4.5-3.14-3.8,2.26,3.21-.61-.79-2-2.79-4-5.57-5.82-8.46a152.05,152.05,0,0,1-9.54-17.34c-.73-1.55-1.43-3.12-2.1-4.69,1.9,4.42,0-.23-.29-.9q-1.85-4.8-3.35-9.71a149.45,149.45,0,0,1-4.53-19.25c-.13-.72-.24-1.44-.35-2.17q-.46-3.24.09.7a40.26,40.26,0,0,1-.45-4.37q-.46-5.1-.54-10.23c-.05-3.41,0-6.83.22-10.24.09-1.47.2-2.93.33-4.39.09-1,1-7.55.2-2.23,1.39-9.8-2.4-20.9-13.27-23.37-9-2-21.88,2.74-23.38,13.27A169.11,169.11,0,0,0,888,195a163.43,163.43,0,0,0,61.17,69.67c8.42,5.32,21.31,2.05,26-6.81a19.41,19.41,0,0,0-6.81-26Z"/><path class="a4129dba-638b-4d5c-b167-8155b16ef0d0" d="M812.69,189.15a30.15,30.15,0,0,1-4.14-1.52c4.24,2.25-.11-.17-.77-.51a70.76,70.76,0,0,1-7.51-4.43c-.87-.58-4.41-3.3-.85-.46q-1.73-1.36-3.36-2.82c-2-1.78-3.94-3.66-5.78-5.63q-1.5-1.6-2.94-3.3-.72-.84-1.41-1.71c1.29,1.72,1.52,2,.7.92-1.59-2.22-3.17-4.42-4.63-6.74q-2.38-3.78-4.44-7.76c-.69-1.32-1.35-2.66-2-4-.32-.68-2.14-5.31-.47-.91a157.93,157.93,0,0,1-6-18.76c-.8-3.27-1.49-6.56-2.1-9.87-.33-1.81-.61-3.63-.92-5.44-.77-4.51.15,1.92-.32-2.24-1.67-14.72-2.23-29.48-2.66-44.28-.29-9.92-8.53-19.47-19-19-10,.45-19.31,8.36-19,19,1,33.35,2.73,67,16.41,98,11.78,26.65,33.23,48.65,61.05,58.14C812,229,823.77,222.11,826,212.52c2.4-10.55-3.19-19.93-13.27-23.37Z"/><path class="a4129dba-638b-4d5c-b167-8155b16ef0d0" d="M641.21,189.09c.89,0,5.85,0,.77-.13a18.76,18.76,0,0,1,3.56.66,67.08,67.08,0,0,1,7.61,2.25c3.71,1.27-3-1.71.78.36,1.06.58,2.16,1.09,3.22,1.67,2.35,1.31,4.57,2.78,6.78,4.31,2.93,2-1.44-1.37.23.18.89.84,1.88,1.6,2.79,2.43,2,1.84,3.93,3.78,5.76,5.8.83.93,1.62,1.88,2.43,2.83,3.21,3.73-2.11-3.18.67.88,1.55,2.26,3.07,4.5,4.46,6.86,1.48,2.51,2.83,5.09,4.07,7.73.19.38,2,4.66,1.2,2.61s.86,2.29,1,2.69A159.49,159.49,0,0,1,692.06,249c1.48,6.41,2.63,12.88,3.63,19.38.22,1.48.42,3,.65,4.45.34,2.2-.31-2.44.16,1.18s.9,7.11,1.33,10.67c1.2,9.83,7.88,19.5,19,19,9.26-.41,20.29-8.43,19-19-3.72-30.5-7.46-62.63-24.29-89.2-15.64-24.68-40.58-42.82-70.33-44.38-9.94-.52-19.44,9.11-19,19,.48,10.74,8.35,18.44,19,19Z"/><circle class="a61fe62c-0fb5-4c53-979e-19ae3002304c" cx="708.5" cy="153.5" r="41"/><path class="a4129dba-638b-4d5c-b167-8155b16ef0d0" d="M528,151.48a123.78,123.78,0,0,0-71,53.77c-17.35,28.27-21.78,63.7-13.08,95.58,2.61,9.58,13.62,16.42,23.37,13.27s16.07-13.1,13.27-23.37c-.88-3.24-1.57-6.49-2.23-9.78-1.06-5.34.28,3.85-.25-1.57-.16-1.66-.32-3.32-.42-5-.19-3.34-.22-6.69-.09-10,.06-1.67.17-3.34.31-5,.08-1,.79-5.88.11-1.59a108.52,108.52,0,0,1,4.62-18.64c.19-.53,2-5.24,1.14-3.19s1.18-2.55,1.44-3.06a93.5,93.5,0,0,1,4.63-8.45c1.45-2.37,3-4.64,4.64-6.91,2.5-3.54-1.89,2,.76-.92,1-1.13,2-2.3,3-3.42q3.06-3.36,6.4-6.45c1.12-1,2.25-2,3.41-3,.51-.43,4.54-3.42.89-.81a118.23,118.23,0,0,1,15.41-9.58c1.35-.69,2.73-1.31,4.09-2,3.28-1.56-1.83.59.35-.14,3.12-1,6.16-2.2,9.33-3.11,9.54-2.74,16.45-13.54,13.27-23.37S538.21,148.55,528,151.48Z"/><circle class="ad30b058-daae-422e-ac81-d84aa017b0dc" cx="851.5" cy="120.5" r="49"/><circle class="ad30b058-daae-422e-ac81-d84aa017b0dc" cx="582.5" cy="89.5" r="49"/><circle class="b5aed927-f231-4260-ab48-495f9506ca31" cx="1001" cy="160" r="48.5"/><path class="f1626f12-7108-44eb-94e3-2cf8f8150ce9" d="M451.15,273c-.91-.06-3.77.08-4.57-.39,2.27.33,2.69.39,1.27.16-.76-.11-1.51-.24-2.26-.38-2.76-.52-5.48-1.17-8.18-1.95s-5.32-1.73-8-2.71c4.16,1.55-.14-.09-1.07-.53-1.38-.66-2.75-1.35-4.09-2.08a89.51,89.51,0,0,1-7.84-4.77c-1-.71-2.07-1.48-3.11-2.22s-.82-.6.83.63c-.6-.48-1.18-1-1.76-1.47q-3.19-2.74-6.11-5.77-1.59-1.67-3.08-3.39c-.46-.53-3.35-4.54-.85-.93a111.62,111.62,0,0,1-9-15.29c-1.92-4,.73,2.37-.56-1.46-.52-1.55-1.09-3.06-1.57-4.62a92.72,92.72,0,0,1-2.36-9.46c-.1-.5-.84-5-.44-2.28s-.23-2.56-.27-3.13a88.67,88.67,0,0,1-.21-8.93c0-1.62.13-3.25.26-4.86.07-.76,1-5.78.1-1.4.66-3.19,1.23-6.36,2.09-9.52,2.59-9.58-3.24-21.08-13.27-23.37s-20.6,3-23.38,13.27c-8.35,30.88-2.64,65.73,16.72,91.45A109.22,109.22,0,0,0,451.15,311c9.94.66,19.44-9.21,19-19-.48-10.86-8.35-18.29-19-19Z"/><g class="a8dcb554-1b63-404f-a714-2316377cc8fc"><rect class="ad30b058-daae-422e-ac81-d84aa017b0dc" x="506.5" y="147.5" width="154" height="296" rx="12"/><rect class="ad30b058-daae-422e-ac81-d84aa017b0dc" x="784.5" y="174.5" width="134" height="258" rx="12"/><rect class="b5aed927-f231-4260-ab48-495f9506ca31" x="933.5" y="215.5" width="144" height="217" rx="12"/><rect class="a61fe62c-0fb5-4c53-979e-19ae3002304c" x="851.5" y="302.5" width="101" height="126" rx="12"/><rect class="a61fe62c-0fb5-4c53-979e-19ae3002304c" x="654.5" y="201.5" width="116" height="233" rx="12"/><rect class="a61fe62c-0fb5-4c53-979e-19ae3002304c" x="540.5" y="303.5" width="101" height="233" rx="12"/><rect class="b5aed927-f231-4260-ab48-495f9506ca31" x="411.5" y="247.5" width="120" height="232" rx="12"/></g><circle class="a61fe62c-0fb5-4c53-979e-19ae3002304c" cx="590.5" cy="252.5" r="41"/><path class="e43eb749-0a03-49cb-bc43-a7b23cb85949" d="M684.5,223.37c-2.59-1.54-5.13-3.14-7.61-4.85q-1.54-1.07-3.06-2.19c-1.58-1.16-2.27-1.86-.32-.22A160.63,160.63,0,0,1,661.29,205q-3.13-3.24-6.06-6.67c-.81-1-1.58-2-2.39-2.9-1.49-1.73,1.84,2.6-.25-.32a160.53,160.53,0,0,1-9.42-14.5q-2-3.6-3.86-7.32c-.55-1.13-1.08-2.26-1.6-3.4-.32-.68-.63-1.37-.93-2.06.83,2,1,2.36.46,1.07-2-5.17-3.82-10.32-5.27-15.66-.71-2.66-1.35-5.34-1.9-8-.3-1.47-.58-2.95-.83-4.43-.1-.57-.7-4.81-.33-1.93s-.13-1.37-.18-2c-.15-1.49-.27-3-.37-4.49-.18-3-.24-6-.23-9,0-9.94-8.77-19.46-19-19s-19,8.35-19,19c-.21,53.62,29.18,105.34,75.19,132.81,8.54,5.1,21.23,2.19,26-6.82,4.85-9.18,2.3-20.55-6.81-26Z"/><circle class="b5aed927-f231-4260-ab48-495f9506ca31" cx="470.5" cy="199.5" r="42"/><circle class="a61fe62c-0fb5-4c53-979e-19ae3002304c" cx="900.5" cy="252.5" r="41"/></g></g></svg>