<svg xmlns="http://www.w3.org/2000/svg" viewBox="0 0 347.24 283"><defs><style>.ba23401b-1094-4009-a48a-08662b908283,.e646a5ed-f3e5-481a-9e07-6ccdedd34bcf{fill:#520cb3;}.ba23401b-1094-4009-a48a-08662b908283{stroke:#520cb3;}.ba23401b-1094-4009-a48a-08662b908283,.bc8caac8-1dcf-4084-9ac2-da5046ec8762,.ef6e3e6f-1e96-40da-9bfa-8adf0366bbb1{stroke-miterlimit:10;}.ef6e3e6f-1e96-40da-9bfa-8adf0366bbb1{fill:none;stroke:#3b9dff;stroke-width:6px;}.ee85255b-3f26-4060-a47b-aa4cb83eb041{fill:#d18600;}.bc8caac8-1dcf-4084-9ac2-da5046ec8762{fill:#0d65bd;stroke:#0d65bd;}</style></defs><title>Asset 1</title><g id="ae5509dd-643b-4a82-9d50-d4b2289fa76c" data-name="Layer 2"><g id="a14d3e44-4ac7-4b38-aa1c-dd5b1ef3dfae" data-name="Weight stand"><path class="ba23401b-1094-4009-a48a-08662b908283" d="M295.41,59.39c1.69,1.07,1.22,3.9-.39,5.1s-3.76,1.25-5.76,1.24l-116.74-.09-119.67-.1c-3.63,0-19-3.85-11.8-10.24,3.94-3.5,17.25-.4,22-.23,18.86.65,37.73.49,56.6.06,37.56-.86,75.13-2.8,112.71-1.58A482.92,482.92,0,0,1,295.41,59.39Z"/><path class="ef6e3e6f-1e96-40da-9bfa-8adf0366bbb1" d="M12.64,152.41c-2.14,5.81-4.41,11.72-4.77,18s1.62,13.19,6.3,16.48c3.86,2.73,8.7,2.53,13.22,2.25L81,185.82c-.54,0-9.81-40.18-10.88-43.93q-6.35-22.38-14.19-44.13c-2.09-5.79-10.85-37.48-17.17-36-5.5,1.26-9,33.69-10.63,40.27A496.21,496.21,0,0,1,12.64,152.41Z"/><path class="ef6e3e6f-1e96-40da-9bfa-8adf0366bbb1" d="M273.64,156c-2.14,5.79-4.41,11.67-4.77,17.93s1.62,13.13,6.3,16.41c3.86,2.71,8.7,2.51,13.22,2.23L342,189.21c-.54,0-9.81-40-10.88-43.72q-6.35-22.26-14.19-43.91c-2.09-5.76-10.85-37.29-17.17-35.85-5.5,1.27-9,33.53-10.63,40.08A490.9,490.9,0,0,1,273.64,156Z"/><path class="ba23401b-1094-4009-a48a-08662b908283" d="M23.09,61.06c-.47,4.45.46,9.53,4.12,12.12,2.5,1.77,5.79,2,8.84,1.73,3.54-.32,7.15-1.31,9.81-3.67,4.31-3.84,5-10.95,1.86-15.82-2.85-4.47-9.64-7.6-15-7.18C26.63,48.74,23.65,55.72,23.09,61.06Z"/><path class="ba23401b-1094-4009-a48a-08662b908283" d="M290.09,61.06c-.47,4.45.46,9.53,4.12,12.12,2.5,1.77,5.79,2,8.84,1.73,3.54-.32,7.15-1.31,9.81-3.67,4.31-3.84,5-10.95,1.86-15.82-2.85-4.47-9.64-7.6-15-7.18C293.63,48.74,290.65,55.72,290.09,61.06Z"/><path class="ba23401b-1094-4009-a48a-08662b908283" d="M340.5,175c1.65,0,3.45,0,4.72,1,1.89,1.52,1.65,4.36,1.24,6.71-1.5,8.56-3,17.22-6.62,25.15s-9.58,15.19-17.74,18.63c-11.13,4.67-24.48,1.34-34.22-5.7s-16.5-17.25-22.5-27.53c-1.61-2.77-3.21-5.62-3.74-8.76-2.29-13.54,24.46-8.49,33.05-8.65Z"/><path class="ba23401b-1094-4009-a48a-08662b908283" d="M80.42,169c1.67,0,3.5,0,4.79,1.05,1.9,1.58,1.66,4.52,1.24,7-1.51,8.88-3,17.87-6.7,26.1s-9.68,15.77-17.94,19.32c-11.26,4.86-24.77,1.4-34.62-5.9S10.5,198.62,4.43,188c-1.64-2.86-3.25-5.83-3.79-9.08-2.31-14.05,24.75-8.81,33.44-9Z"/><path class="e646a5ed-f3e5-481a-9e07-6ccdedd34bcf" d="M319.64,190l.26.38a1,1,0,0,0,.38.42,1.26,1.26,0,0,0,.51.27,1.22,1.22,0,0,0,.6,0,1.12,1.12,0,0,0,.56-.18l.3-.24a1.39,1.39,0,0,0,.39-.66l.05-.4a1.5,1.5,0,0,0-.2-.75l-.26-.39a1.12,1.12,0,0,0-.39-.42,1.14,1.14,0,0,0-.51-.27,1.07,1.07,0,0,0-.59,0,1.12,1.12,0,0,0-.56.18l-.3.23a1.49,1.49,0,0,0-.39.66l-.05.4a1.57,1.57,0,0,0,.2.76Z"/><path class="ee85255b-3f26-4060-a47b-aa4cb83eb041" d="M311.38,184.67l31.85-1-.79-5.89-14.16,5.36a3,3,0,0,0,.8,5.89l10.15,1.14-.8-5.9a49.06,49.06,0,0,0-11.9,5.19c-2.75,1.66-1.3,5.26,1.51,5.59l10.08,1.18-.79-5.89-8.63,2.27c-2.41.63-3,4.28-.72,5.48l7.8,4,1.51-5.59-2.2.1a3,3,0,0,0-2.13,5.12l.92,1.1,1.32-5-17.4,3.91c-2.77.63-2.94,5.29,0,5.79l16,2.71v-5.78L329.66,206a3,3,0,0,0,0,5.78l2.3.81-.72-5.48a4.35,4.35,0,0,0-2.35,5.64l.77-2.92a22.21,22.21,0,0,1-18.14,9v6l9-.15L319,219.06l-8.51,3.78c-2.67,1.18-1.39,5.89,1.51,5.59a34.19,34.19,0,0,0,20.24-9.13c2.83-2.63-1.42-6.87-4.24-4.24a27.51,27.51,0,0,1-16,7.37L313.5,228l8.52-3.78c2.8-1.25,1.29-5.64-1.52-5.59l-9,.15c-3.85.07-3.87,6,0,6a28.05,28.05,0,0,0,15.41-4.3,27.28,27.28,0,0,0,6.08-5.31,11.25,11.25,0,0,0,1.52-2.12,2.29,2.29,0,0,0,.25-1.16c0-1.18-.2-1.07-.51.34,2.52-1.2,1.5-4.7-.71-5.48l-2.3-.81v5.78l4.12-1.47c2.51-.89,3.19-5.24,0-5.78l-16-2.72v5.79l17.4-3.91c2.38-.54,2.67-3.4,1.32-5l-.91-1.1-2.12,5.12,2.2-.1c2.81-.13,4.3-4.15,1.52-5.59l-7.8-4-.72,5.48,8.63-2.27c3.51-.92,2.37-5.52-.8-5.89L328,189.06l1.51,5.59A42.64,42.64,0,0,1,340,190.07c3.45-1,2.43-5.53-.79-5.89L329.08,183l.8,5.89L344,183.58c3-1.13,2.82-6-.8-5.9l-31.85,1c-3.85.12-3.86,6.12,0,6Z"/><path class="ee85255b-3f26-4060-a47b-aa4cb83eb041" d="M55.28,181.55a254.88,254.88,0,0,1,26.8.09l-.93-6.88-8.09,2.76c-3,1-3.66,6.1,0,6.75L79,185.33l-1.55-5.85L74.77,182a3.53,3.53,0,0,0,1.54,5.85l2.46.54v-6.75l-1.2.43c-2.17.8-3.82,4.08-1.55,5.85l.37.21,1.61-4a19.82,19.82,0,0,1-6.93,2.26c-4.24.63-2.61,6.46.93,6.88l3.62.43v-7l-17.83.77c-4.49.19-4.52,6.87,0,7a134.61,134.61,0,0,1,19.72,2l.93-6.88a14.22,14.22,0,0,0-7.74,1.76c-2.61,1.34-2.08,5.79.84,6.4l3.61.75v-6.75l-8.74,1.77c-4,.81-2.89,6.75.93,6.88l7.9.27v-7a55.24,55.24,0,0,0-11.38,2.17c-3,.93-3.62,6.18,0,6.75l11.36,1.77-1.55-5.85a13.67,13.67,0,0,1-5.48,2.95c-3.62,1.07-3.14,7.31.93,6.88l5.11-.55-2.47-6-8,7.59c-3,2.81.81,7.3,4.25,5.49l7.89-4.15-4.24-5.49c-5.09,5.87-10.64,12.31-19.08,12.15l.94,6.88a47.13,47.13,0,0,0,16.21-9.37c3.4-3-1.57-7.91-4.95-5a38,38,0,0,1-13.13,7.57c-3.67,1.25-3.14,6.8.93,6.87,10.41.2,17.65-6.84,24-14.2a3.52,3.52,0,0,0-4.25-5.5l-7.89,4.15,4.24,5.5,8-7.59c2.06-1.95.61-6.3-2.48-6l-5.11.55.93,6.87a21.81,21.81,0,0,0,8.57-4.75c1.86-1.62,1-5.45-1.54-5.85l-11.36-1.77v6.75a46.19,46.19,0,0,1,9.52-1.92c4.43-.4,4.57-6.85,0-7l-7.9-.27.93,6.87L77,198.51c3.35-.68,3.33-6.06,0-6.75L73.4,191l.83,6.39a5.87,5.87,0,0,1,4.21-.8c3.88.22,4.85-6.18.93-6.87a146.07,146.07,0,0,0-21.58-2.24v7l17.83-.77c4.61-.2,4.39-6.48,0-7L72,186.29l.93,6.87a25,25,0,0,0,8.6-3,3.52,3.52,0,0,0,1.61-4A6.15,6.15,0,0,0,81,183l-1.54,5.85,1.2-.43c3-1.1,3.65-6,0-6.75l-2.46-.54,1.55,5.85,2.66-2.5c1.81-1.7,1.06-5.39-1.54-5.85l-5.92-1.06v6.75L83,181.51a3.51,3.51,0,0,0-.93-6.87,254.88,254.88,0,0,0-26.8-.09c-4.49.22-4.51,7.23,0,7Z"/><path class="ee85255b-3f26-4060-a47b-aa4cb83eb041" d="M80.8,170.33q-23.31,1.95-46.71,2.35c-4.5.08-4.52,7.08,0,7q23.38-.39,46.71-2.35c4.45-.38,4.49-7.38,0-7Z"/><path class="ee85255b-3f26-4060-a47b-aa4cb83eb041" d="M308,56.66c.37.43-.12-.24.16.2.14.22.29.43.41.66,0,.07.34.66.22.4s.13.36.15.43a9.65,9.65,0,0,1,.34,1.41c-.07-.45,0,.06,0,.23s0,.45,0,.68,0,.45,0,.67c0,.72.11-.47,0,.24a9.77,9.77,0,0,1-.32,1.32c-.07.22-.14.43-.23.64.19-.47-.06.13-.11.23a9,9,0,0,1-.77,1.26l0,0c-.08.09-.15.18-.23.26s-.32.35-.48.51-.34.32-.51.47l-.27.23c.2-.15.18-.14-.05,0-.39.26-.78.51-1.19.73l-.62.32c-.67.32.43-.14-.27.11a12.73,12.73,0,0,1-2.73.7c.52-.07-.16,0-.27,0l-.71,0a14.89,14.89,0,0,1-1.64-.07,2.5,2.5,0,0,0-2.5,2.5,2.57,2.57,0,0,0,2.5,2.5,14.64,14.64,0,0,0,13.38-6,11.88,11.88,0,0,0-.73-14.24,2.53,2.53,0,0,0-3.54,0,2.57,2.57,0,0,0,0,3.54Z"/><path class="ee85255b-3f26-4060-a47b-aa4cb83eb041" d="M39.16,56.76a7.1,7.1,0,0,1,.91.59c-.28-.22-.07,0,.08.09l.39.38c.1.1.19.21.29.32.45.49-.13-.23.08.09s.4.59.58.92c.08.15.16.32.24.48-.11-.21-.08-.22,0,0s.23.69.32,1c0,.17.07.35.1.53s0-.39,0,.09,0,.72,0,1.08,0,.19,0,0c0,.17-.07.34-.11.52-.08.34-.2.67-.3,1s.25-.49,0,.08l-.24.47c-.16.28-.34.54-.51.81.25-.41,0,0-.07.08s-.23.26-.36.39a7.56,7.56,0,0,1-.78.71c.18-.14.2-.14,0,0l-.45.28-.46.26c-.46.26.35-.13-.18.08a2.56,2.56,0,0,0-1.75,3.08A2.53,2.53,0,0,0,40,71.84a11,11,0,0,0,7.14-9.26,10.83,10.83,0,0,0-5.45-10.13,2.5,2.5,0,1,0-2.52,4.31Z"/><path class="bc8caac8-1dcf-4084-9ac2-da5046ec8762" d="M144.37,11C147.1,5.63,151.87.17,157.93.52c5.19.29,9.09,4.71,12.06,9A120.89,120.89,0,0,1,184.36,37c1.26,3.45,2.35,7.37.76,10.67-1.71,3.56-5.88,5.11-9.72,6a77.43,77.43,0,0,1-19.72,2.13A21.7,21.7,0,0,1,147,54.29C133,47.8,139.2,21.27,144.37,11Z"/><path class="bc8caac8-1dcf-4084-9ac2-da5046ec8762" d="M141.09,51.64c-3.46,1.1-6.5,4.42-6,8,.52,3.91,4.56,6.13,7.63,8.59,8.24,6.62,11.1,17.76,12.94,28.17a314.5,314.5,0,0,1-2.39,121.05c-.65,3-1.33,6.12-.39,9,1.85,5.64,8.69,7.6,14.53,8.72,5,1,11.38,1.31,13.86-3.12,1.94-3.48.14-7.73-1.16-11.5-3-8.77-3.11-18.24-3.18-27.52l-.61-85.51c-.09-12.58.15-26.21,7.83-36.18,2.26-2.94,5.11-5.44,7-8.65s2.53-7.53.3-10.49-6.2-3.47-9.81-3.63a100.38,100.38,0,0,0-20.85,1.19c-3.1.5-6.44,1.77-9.54,1.78C147.7,51.58,144.61,50.52,141.09,51.64Z"/><path class="bc8caac8-1dcf-4084-9ac2-da5046ec8762" d="M158.24,226.19c-11.45,11.2-22.9,22.67-34.36,33.88a31.86,31.86,0,0,0-5.43,6.34,10.64,10.64,0,0,0-1.42,8c.84,3.08,3.52,5.38,6.46,6.61,6.35,2.66,13.56,1,20.38,0,29.9-4.46,61.1,3.86,90.32-3.9,2.06-.55,4.25-1.29,5.43-3.06,1.69-2.56.4-6.18-1.88-8.25s-5.3-3.05-8.05-4.4c-12-5.87-19.1-18.6-30.27-25.87-11.9-7.75-27-8.94-41.18-9.4"/><path class="ee85255b-3f26-4060-a47b-aa4cb83eb041" d="M168.2,93.77q-.55,56.18,1.67,112.33c.15,3.84,6.15,3.86,6,0Q173.65,150,174.2,93.77c0-3.87-6-3.87-6,0Z"/><path class="ee85255b-3f26-4060-a47b-aa4cb83eb041" d="M160.68,8.06A77.44,77.44,0,0,1,175.8,44a2.51,2.51,0,0,0,3.07,1.75,2.58,2.58,0,0,0,1.75-3.08,82.23,82.23,0,0,0-16.4-38.15,2.53,2.53,0,0,0-3.54,0,2.57,2.57,0,0,0,0,3.54Z"/><path class="ee85255b-3f26-4060-a47b-aa4cb83eb041" d="M178.79,238.17a14.71,14.71,0,0,1,10.08.7l.84-6.4-9.21,3.62a3.52,3.52,0,0,0,.93,6.88L199.28,245l-1.77-6.53-7.84,3.64c-3.12,1.44-1.62,6.79,1.76,6.52a34.24,34.24,0,0,1,12.81,1.28l-.84-6.4-5.47,3.09c-2.8,1.59-1.86,5.4.84,6.4a29.58,29.58,0,0,0,9.17,1.8l-1.77-6.53a35.3,35.3,0,0,1-11.07,4.27c-4.51.95-2.46,7.34,1.87,6.75a54.3,54.3,0,0,1,17.16.44l-.84-6.39-8.81,4.28c-3.51,1.7-1.25,6.12,1.77,6.52l9,1.2-.93-6.88-4.45,1.21c-3.71,1-3.1,7.18.93,6.87a78.42,78.42,0,0,1,15.24.31l-.93-6.88-4.35,1c-3,.67-3.41,5-.84,6.4a24.86,24.86,0,0,0,8.49,3v-6.75l-3.81,1.19a3.53,3.53,0,0,0,0,6.75l6.15,2.24V267a190.15,190.15,0,0,1-52.68,3.63v7l53.59-1c3.92-.08,4.77-5.79.93-6.88a56.05,56.05,0,0,0-24.13-1.44c-4.45.66-2.54,7.37,1.86,6.75l13-1.82c3.9-.55,3-7.08-.94-6.88A176.18,176.18,0,0,1,186,264.61l-.93,6.87,24.67-1.08c4.48-.2,4.51-7.2,0-7l-24.67,1.08c-3.72.17-5,6.24-.93,6.88a185.12,185.12,0,0,0,38.28,2l-.93-6.87-13,1.82,1.86,6.75a47.85,47.85,0,0,1,20.4,1.44l.94-6.87-53.59,1c-4.55.08-4.46,6.69,0,7a197.4,197.4,0,0,0,54.54-3.88c3.66-.77,3-5.66,0-6.75l-6.15-2.24v6.75l3.81-1.19c3-.94,3.63-6.19,0-6.75a19.43,19.43,0,0,1-6.82-2.28l-.83,6.4,4.35-1c4.15-.94,2.71-6.45-.93-6.87a78.42,78.42,0,0,0-15.24-.31l.93,6.88,4.45-1.21c4.12-1.11,2.74-6.39-.93-6.87l-9-1.2,1.76,6.52,8.81-4.28c2.62-1.27,2.08-5.86-.83-6.4a65.37,65.37,0,0,0-20.89-.44l1.87,6.75a42,42,0,0,0,12.73-5c3.08-1.82,1.64-6.37-1.76-6.52a23.47,23.47,0,0,1-7.31-1.55l.84,6.4,5.47-3.1a3.54,3.54,0,0,0-.84-6.39,40,40,0,0,0-14.67-1.53l1.77,6.52,7.85-3.63c3.51-1.63,1.25-6.18-1.77-6.52L181.43,236l.93,6.87,9.21-3.62c2.43-.95,3.89-5,.83-6.39a22.57,22.57,0,0,0-15.47-1.41c-4.36,1.12-2.52,7.87,1.86,6.75Z"/></g></g></svg>