<svg xmlns="http://www.w3.org/2000/svg" viewBox="0 0 1505 381"><defs><style>.ad83813f-dccd-40f9-ad7b-90eddfb491bf,.ef12c664-766a-4c7a-b885-969c43cd66f1,.fc3a3c17-135e-49e4-a56d-3810f3da97e6{fill:none;stroke-width:8px;}.ef12c664-766a-4c7a-b885-969c43cd66f1{stroke:#520cb3;}.a6ee2b0c-95b9-422c-8d65-4b305a7bb189,.ad83813f-dccd-40f9-ad7b-90eddfb491bf,.b7f61f3e-1569-4271-91c1-f7f53ae71826,.ef12c664-766a-4c7a-b885-969c43cd66f1,.fc3a3c17-135e-49e4-a56d-3810f3da97e6,.ff382606-8d44-4631-9065-14081c7c1078{stroke-miterlimit:10;}.a6ee2b0c-95b9-422c-8d65-4b305a7bb189,.ad83813f-dccd-40f9-ad7b-90eddfb491bf{stroke:#fc0;}.fc3a3c17-135e-49e4-a56d-3810f3da97e6{stroke:#0d65bd;}.b3faefcc-10ff-4a27-a11f-bcbde359162c{fill:#520cb3;}.a22bc9e7-b72f-4dbd-a2f1-689b5d8512bd{fill:#d18600;}.ed86bb23-680f-490e-bc9d-56c979e198fc{fill:#0d65bd;}.ff382606-8d44-4631-9065-14081c7c1078{fill:#8e3dff;stroke:#8e3dff;}.a6ee2b0c-95b9-422c-8d65-4b305a7bb189,.b7f61f3e-1569-4271-91c1-f7f53ae71826,.ff382606-8d44-4631-9065-14081c7c1078{stroke-width:2px;}.b7f61f3e-1569-4271-91c1-f7f53ae71826{fill:#3b9dff;stroke:#3b9dff;}.a6ee2b0c-95b9-422c-8d65-4b305a7bb189{fill:#fc0;}</style></defs><title>blog_desk</title><g id="e7511838-beaa-473b-95c7-e15ae4e93b9c" data-name="Layer 2"><g id="b1b7b9fa-d778-4276-9099-c55a2a819221" data-name="Blog Illus."><rect id="b7cfdf4c-6fc7-4161-b11d-ba8ef1e369fc" data-name="SVGID" class="ef12c664-766a-4c7a-b885-969c43cd66f1" x="27" y="4" width="1474" height="349" rx="12"/><rect id="fef21cdf-0b77-41cb-9902-e6ba559b50fc" data-name="SVGID" class="ad83813f-dccd-40f9-ad7b-90eddfb491bf" x="15.5" y="16" width="1474" height="349" rx="12"/><rect id="e2dbad81-9a31-4b6c-b517-3829502e75fc" data-name="SVGID" class="fc3a3c17-135e-49e4-a56d-3810f3da97e6" x="4" y="28" width="1474" height="349" rx="12"/><rect class="b3faefcc-10ff-4a27-a11f-bcbde359162c" x="610.08" y="75.49" width="307.29" height="198.8" rx="5.66"/><rect class="a22bc9e7-b72f-4dbd-a2f1-689b5d8512bd" x="635.8" y="99.46" width="255.48" height="179.62" rx="5.66"/><path class="b3faefcc-10ff-4a27-a11f-bcbde359162c" d="M575,258.53H952.45c5.61,0,9.25,7.67,6.74,14.19L947,304.33c-1.27,3.32-3.88,5.42-6.74,5.42H587.16c-2.85,0-5.46-2.1-6.74-5.42l-12.16-31.61C565.76,266.2,569.4,258.53,575,258.53Z"/><path class="ed86bb23-680f-490e-bc9d-56c979e198fc" d="M694.1,168.81c5.28-.5,9.5-3.13,13.71-6.16a43.1,43.1,0,0,1,6-3.79c.71-.35.38-.19.2-.11.25-.11.52-.21.78-.3a13.78,13.78,0,0,1,1.77-.52,7.37,7.37,0,0,1,.79-.16c.67-.11-.54,0,.13,0a9.62,9.62,0,0,1,1.78,0c-.67-.09,0,0,.12.06l.77.21c.82.24.24.09.05,0,.25.12.5.25.74.39l.56.35c.1.06.68.47.27.17s.15.13.24.21l.62.56a57.28,57.28,0,0,1,3.86,4.38c3.28,3.81,7.23,6.34,12.35,6.71s10.26-1.65,14.77-4c2.19-1.13,4.32-2.36,6.55-3.42a19.85,19.85,0,0,1,2.82-1.16,22.22,22.22,0,0,1,3.19-.8c-.93.16.54,0,.8,0,.46,0,.91,0,1.37,0,.23,0,.46,0,.68,0,.61,0-.64-.13,0,0s1,.19,1.48.33l.64.19s1,.41.45.16a8,8,0,0,0,.83.45,6.37,6.37,0,0,0,.55.35c.48.23-.41-.43,0,0s.69.68,1,1c-.51-.52-.15-.23,0,0s.29.46.42.7.35.79.21.42.14.41.16.48a19,19,0,0,0,1.63,3.76,9.57,9.57,0,0,0,5.86,4.22c5.19,1.12,10.5-1.35,14.29-4.79,1.76-1.6,3.39-3.33,5.23-4.84.49-.4-.44.32.07-.05.24-.18.49-.35.74-.52.5-.32,1-.61,1.54-.88.19-.09.67-.19,0,0,.34-.1.66-.22,1-.31l.69-.14c-.73.12.06,0,.36,0a4,4,0,0,0,0-8c-5,.05-9,3-12.45,6.33-.77.73-1.53,1.48-2.31,2.21-.34.33-.69.64-1,1-.09.08-.65.5-.25.21s-.34.23-.42.28c-.39.25-.78.49-1.19.71l-.61.32c-.95.52.45-.14-.15.08-.43.16-.85.31-1.29.43l-.64.17c-.45.11-.61.09-.06,0-.42,0-.83,0-1.25.05-.7,0,0,0,.16.05l-.72-.17c-.17,0-.67-.33-.21,0s-.12-.07-.17-.14c-.32-.43.43.53.09.09-.16-.2-.39-.35-.55-.55.44.54,0,0,0-.13s-.25-.47-.36-.72c.24.57-.06-.25-.11-.39s-.19-.51-.28-.77a15.06,15.06,0,0,0-1.65-3.4c-2.8-4-7.31-5.86-12.06-6.15-4.94-.3-9.63,1.61-13.94,3.83-2.19,1.13-4.33,2.36-6.55,3.44l-.78.37c-1.18.57.34-.13-.37.17-.52.21-1,.4-1.57.58a24.49,24.49,0,0,1-3.44.89c-.82.16-.35.06-.17,0l-1,.08c-.54,0-1.08,0-1.63,0-.09,0-.92-.09-.46,0s-.36-.07-.46-.09a11.33,11.33,0,0,1-1.72-.51c.54.22-.08-.06-.15-.1-.27-.16-.54-.3-.8-.46l-.56-.38c-.49-.31.44.41,0,0-.7-.67-1.41-1.3-2.07-2-2.71-3-5.07-6.5-8.9-8.22-5.86-2.64-12.14-.62-17.28,2.7-2.22,1.43-4.27,3.09-6.5,4.52a24.52,24.52,0,0,1-3.41,1.87c.17-.07.57-.2-.17,0-.38.13-.76.26-1.15.37l-.79.19c-.81.2.37,0-.54.09-2.08.19-4.11,1.69-4,4,.09,2,1.76,4.21,4,4Z"/><path class="ed86bb23-680f-490e-bc9d-56c979e198fc" d="M713.36,206.22c3.53-3.19,6.37-5.86,10.69-7.93.06,0,.85-.39.49-.24s.39-.15.45-.17c.42-.16.84-.3,1.27-.42s1-.27,1.48-.37l.76-.14c-.81.14.38,0,.45,0,1-.07,1.89,0,2.84,0,.64,0-.56-.14.06,0,.24.06.49.09.73.15a14.85,14.85,0,0,1,1.61.47c.13,0,.67.32.07,0l.66.34a9.73,9.73,0,0,1,1.1.7c.52.37-.38-.35.11.1.2.18.4.36.59.55.44.42.85.87,1.25,1.32a27.68,27.68,0,0,0,5.07,4.84c4,2.69,8.85,3,13.44,2.23a44,44,0,0,0,12.57-4.54c4.09-2,7.39-3.78,12-4.62l.81-.14c-.64.09,0,0,.14,0,.53,0,1.06-.07,1.59-.07s1,0,1.57.09c-.19,0-.68-.14.09,0l1,.22q.39.1.75.24c.09,0,.83.35.44.16s.25.14.25.14c.24.14.48.26.71.41s1.3.9.83.54c.48.37.93.77,1.39,1.16a21.26,21.26,0,0,0,6.61,4.23,15.69,15.69,0,0,0,6.93.77c5.58-.57,10.44-3.14,15.22-5.89,1.15-.65,2.29-1.3,3.46-1.91A26.9,26.9,0,0,1,826,197a21.09,21.09,0,0,1,3.66-1c.69-.11-.51,0,.18,0,.35,0,.7-.06,1-.06a14.93,14.93,0,0,1,2.11.12c2.09.25,4.09-2,4-4a4.13,4.13,0,0,0-4-4c-5.15-.62-10.16,1.35-14.62,3.72-2.11,1.12-4.14,2.38-6.24,3.52a24.26,24.26,0,0,1-5.85,2.48c-.53.15-1.07.29-1.62.4l-.8.14h-.15c-.53,0-1.06.06-1.6.05-.26,0-.52,0-.79,0-.73-.05.12,0-.3-.05a15.5,15.5,0,0,1-1.52-.42c-.63-.2.44.24-.16-.05-.25-.12-.48-.25-.72-.38s-.46-.28-.68-.43-.74-.52-.41-.28-.32-.26-.38-.31l-.77-.65a24,24,0,0,0-6.56-4.32,17,17,0,0,0-7-1.14c-5.09.2-9.88,2.08-14.43,4.23-2,.95-4,2-6,2.92-.15.07-1.28.55-.68.31-.49.2-1,.39-1.49.57-1.11.41-2.24.78-3.39,1.08-.5.13-1,.24-1.52.34l-.75.14c-.14,0-.79.09-.07,0a19.49,19.49,0,0,1-3,.11c-.24,0-.48-.05-.72-.06.73,0,.18,0,0,0-.47-.09-.93-.19-1.39-.32-.19-.06-1.43-.58-.72-.23a14,14,0,0,1-1.6-.91c-.08-.05-.56-.44-.11-.07-.21-.17-.41-.35-.6-.53-.35-.33-.67-.67-1-1-.78-.84-1.5-1.74-2.29-2.58a17.07,17.07,0,0,0-6.42-4.35c-4.87-1.9-10.49-1.21-15.2.77-5.26,2.22-9.57,6-13.75,9.83a4,4,0,0,0,0,5.66,4.09,4.09,0,0,0,5.65,0Z"/><ellipse class="ff382606-8d44-4631-9065-14081c7c1078" cx="1067.29" cy="127.5" rx="73.84" ry="85.96" transform="translate(623.53 1106.5) rotate(-72.43)"/><path class="ff382606-8d44-4631-9065-14081c7c1078" d="M981.13,211.58l55.39-34.05a1.16,1.16,0,0,0,.29-1.73L1000.62,132a1.16,1.16,0,0,0-2,.46l-19.21,77.86A1.16,1.16,0,0,0,981.13,211.58Z"/><ellipse class="b7f61f3e-1569-4271-91c1-f7f53ae71826" cx="1006.89" cy="139.67" rx="45.66" ry="70.5" transform="translate(807.09 1136.37) rotate(-86.56)"/><path class="b7f61f3e-1569-4271-91c1-f7f53ae71826" d="M938.9,194.17l43.57-22.37a1.16,1.16,0,0,0,.2-1.94L952.06,145a1.16,1.16,0,0,0-1.85.59l-13,47.23A1.16,1.16,0,0,0,938.9,194.17Z"/><ellipse class="b7f61f3e-1569-4271-91c1-f7f53ae71826" cx="472.26" cy="220.09" rx="70.3" ry="60.44" transform="translate(82.24 565.57) rotate(-66.52)"/><path class="b7f61f3e-1569-4271-91c1-f7f53ae71826" d="M570,204.28,520.68,223.9a1.15,1.15,0,0,1-1.55-.81L508.54,179a1.16,1.16,0,0,1,1.57-1.35L570,202.13A1.16,1.16,0,0,1,570,204.28Z"/><ellipse class="a6ee2b0c-95b9-422c-8d65-4b305a7bb189" cx="1021.5" cy="206" rx="52.5" ry="34"/><path class="a6ee2b0c-95b9-422c-8d65-4b305a7bb189" d="M955.51,229.65l35.3-1.77a1.17,1.17,0,0,0,1-1.68L979,200.76a1.16,1.16,0,0,0-1.93-.22l-22.55,27.21A1.16,1.16,0,0,0,955.51,229.65Z"/><ellipse class="a6ee2b0c-95b9-422c-8d65-4b305a7bb189" cx="477.68" cy="144.71" rx="83.95" ry="74" transform="translate(-15.37 67.11) rotate(-7.91)"/><path class="a6ee2b0c-95b9-422c-8d65-4b305a7bb189" d="M591.27,181l-59.72,4.18a1.16,1.16,0,0,1-1.21-1.41l13.3-61a1.15,1.15,0,0,1,2-.48l46.42,56.81A1.17,1.17,0,0,1,591.27,181Z"/><ellipse class="ff382606-8d44-4631-9065-14081c7c1078" cx="542.56" cy="112.02" rx="47.5" ry="34" transform="translate(-11.22 96.37) rotate(-10.05)"/><path class="ff382606-8d44-4631-9065-14081c7c1078" d="M592.17,147l-30-12.83a1.16,1.16,0,0,1-.41-1.84l17.58-19.84a1.17,1.17,0,0,1,2,.36l12.44,32.67A1.16,1.16,0,0,1,592.17,147Z"/></g></g></svg>