<svg xmlns="http://www.w3.org/2000/svg" viewBox="0 0 240 240"><defs><style>.ad329602-a9fc-4cc8-98b0-407dff4cd934{fill:#fff;}.ee1c4a93-1ad9-4d8d-b209-3ec3fdd09671{fill:#520cb3;}.bb742479-7c02-44b8-bdea-f125ecfa1947{fill:#d18600;}.ba4d1a6e-5aee-48ed-9c6f-471a920e3822{fill:#0d65bd;}</style></defs><title>blog</title><g id="b86f3147-fcd3-4bee-86e8-8b05afe68dd1" data-name="Layer 2"><g id="b3d986cc-be11-4473-a62a-294caba354a8" data-name="Grid"><rect class="ad329602-a9fc-4cc8-98b0-407dff4cd934" width="240" height="240" rx="18.95"/><rect class="ee1c4a93-1ad9-4d8d-b209-3ec3fdd09671" x="31.54" y="62" width="176.92" height="124.4" rx="5.66"/><rect class="bb742479-7c02-44b8-bdea-f125ecfa1947" x="46.35" y="77" width="147.09" height="112.4" rx="5.66"/><path class="ee1c4a93-1ad9-4d8d-b209-3ec3fdd09671" d="M11.35,176.54h217.3c3.23,0,5.33,4.8,3.89,8.88l-7,19.78c-.74,2.08-2.24,3.39-3.89,3.39H18.35c-1.65,0-3.15-1.31-3.89-3.39l-7-19.78C6,181.34,8.12,176.54,11.35,176.54Z"/><path class="ba4d1a6e-5aee-48ed-9c6f-471a920e3822" d="M73.76,116.55c4.38-.48,7.64-2.71,11-5.35.86-.67.83-.67,1.67-1.27a21.47,21.47,0,0,1,2.33-1.44c.24-.12.49-.25.74-.36-.08,0-.43.17,0,0s.76-.25,1.15-.35l.58-.12c-.09,0-.56,0-.09,0h.58c.71,0-.13-.08.27,0l.57.16c-.06,0-.51-.25-.14-.06s.55.36.83.5-.1-.08-.16-.14c.12.11.25.21.36.33.32.31.64.61.93.94s.45.52.66.78.67.84.44.54.07.1.1.14l.53.68c.35.45.7.91,1.06,1.36a13.28,13.28,0,0,0,9.72,5.22c4,.23,7.82-1.4,11.2-3.3,1.63-.92,3.21-1.91,4.87-2.77.44-.23.88-.45,1.34-.65-.44.19.48-.19.61-.23.4-.14.81-.27,1.21-.38s1.48-.21.53-.15c.66,0,1.3,0,2,0s-.52-.15.23,0c.42.11.83.22,1.24.35.7.22-.41-.28.21.1l.81.5c-.57-.35-.12,0,.16.2.13.1.48.58,0-.08a6.49,6.49,0,0,1,.36.55c.11.18.4.9.2.35.14.36.25.73.37,1.09a12.66,12.66,0,0,0,1.34,3,8.14,8.14,0,0,0,4.78,3.48c4.05,1,8.27-1,11.2-3.71,1.37-1.28,2.56-2.73,3.95-4l.42-.37c.06,0,.64-.5.31-.26s.14-.09.17-.11l.6-.37.61-.31c-.34.16-.38.13,0,0l.49-.11c.54-.16-.89,0,.14,0a4,4,0,0,0,0-8c-4,.07-7.07,2.4-9.75,5.13-.57.59-1.13,1.19-1.71,1.78-.25.26-.51.53-.77.78s-.95.76-.34.34a18,18,0,0,1-1.89,1.12c-.4.22.13-.06.19-.07-.16,0-.31.11-.47.15l-.46.14c-.16,0-1,.06-.39.09s-.36-.06-.52,0c-.43,0,.3,0,.35,0-.18-.06-.49,0-.07,0s.19.07,0,0-.44-.34-.07,0,0,0-.05-.09c.54.43.12.13-.06-.17s0,0,0,.09c-.07-.17-.13-.36-.19-.54-.13-.36-.24-.73-.37-1.1a12.57,12.57,0,0,0-1.34-2.85,12.3,12.3,0,0,0-9.48-5.19c-3.76-.31-7.37,1.16-10.61,2.92-1.64.9-3.22,1.9-4.86,2.79-.43.23-.87.46-1.31.67-.15.07-1.05.43-.53.24a21.08,21.08,0,0,1-2.71.8c-.72.16.23,0-.5.07-.39,0-.78,0-1.17,0-.73,0,.25.13-.46,0l-.56-.14c-.23-.07-.81-.32-.31-.08a9.61,9.61,0,0,1-1-.57c-.61-.39.3.32-.22-.19a20.35,20.35,0,0,1-1.61-1.74c-.22-.26-.44-.54-.65-.81.42.54-.07-.09-.22-.29-.62-.81-1.24-1.63-1.92-2.4a12.73,12.73,0,0,0-3.84-3.08c-4.5-2.19-9.4-.85-13.38,1.81-1.85,1.24-3.6,2.77-5,3.77-.78.55-1.6,1-2.43,1.51-.08,0-.7.33-.14.09a6.55,6.55,0,0,1-.74.27l-.57.16c-.14,0-1,.16-.3.09-2.08.22-4.11,1.68-4,4,.09,2,1.77,4.24,4,4Z"/><path class="ba4d1a6e-5aee-48ed-9c6f-471a920e3822" d="M88.69,146.26c2.65-2.61,4.73-4.76,7.9-6.35.06,0,1.32-.53.49-.24.35-.12.71-.24,1.06-.34s.72-.18,1.09-.26c.77-.17.21,0,0,0a13.46,13.46,0,0,1,2.2,0c-.91-.08.23.07.36.1s1.49.57.75.21c.33.16.64.35,1,.53.86.5-.34-.46.38.32.56.6,1.11,1.19,1.63,1.83a18.44,18.44,0,0,0,3.87,3.82c3.16,2.16,7,2.38,10.69,1.72a31.6,31.6,0,0,0,9.29-3.64c3.08-1.67,5.26-3,8.52-3.63.07,0,1.34-.18.49-.1a11.07,11.07,0,0,1,1.15-.06,8.62,8.62,0,0,1,1.14.06c-.88-.12.33.11.42.14s1.18.47.48.13c.36.18.7.39,1,.6,1,.59-.35-.41.47.37.4.38.81.74,1.21,1.11,2.93,2.7,6.31,4.4,10.4,4,4.29-.43,8-2.46,11.6-4.7.86-.55,1.73-1.09,2.62-1.59q.57-.33,1.14-.63a8.93,8.93,0,0,0,1-.5,7.67,7.67,0,0,1,5-.78c2.08.26,4.09-2,4-4-.11-2.39-1.77-3.72-4-4-3.93-.49-7.79,1.09-11.14,3-3,1.72-6,4-8.85,4.83-.4.12-.8.2-1.2.31-1.11.32.61,0-.53.1-.4,0-.79,0-1.18,0-1,0,.49.24-.49-.07,0,0-1.23-.4-.54-.11a6.55,6.55,0,0,1-1.06-.6c-1-.6.35.41-.46-.38-.4-.38-.81-.74-1.21-1.11-3-2.73-6.47-4.45-10.58-4.17a28.23,28.23,0,0,0-10.92,3.5c-1.42.73-2.81,1.54-4.25,2.25-.35.18-.71.34-1.07.51-1.14.55.69-.24-.5.22a26.25,26.25,0,0,1-2.59.87c-.37.1-.74.19-1.12.27-.1,0-1.31.17-.41.09a15.72,15.72,0,0,1-2.17,0c-1,0,.65.26-.34-.07-.33-.11-.68-.18-1-.3.81.29-.23-.14-.35-.2s-.42-.26-.62-.4c.31.25.28.21-.09-.11-1.14-1.18-2.09-2.51-3.21-3.71a13,13,0,0,0-5.15-3.37c-8.61-3.12-16.26,3.24-22,8.85a4,4,0,1,0,5.66,5.66Z"/></g></g></svg>