<svg xmlns="http://www.w3.org/2000/svg" viewBox="0 0 240 240"><defs><style>.a0b3b81c-1ca9-4b71-a4c0-542c2d2a8667{fill:#fff;}.a2587a9e-55e7-4ec1-9a45-fa7e4b22775a{fill:#520cb3;stroke:#520cb3;}.a2587a9e-55e7-4ec1-9a45-fa7e4b22775a,.a4db8e96-312a-4d2c-b6e8-110f7b28b3f2,.e858b8a9-ffc4-42c8-ad3f-7d93dbadcc28{stroke-miterlimit:10;stroke-width:2px;}.a4db8e96-312a-4d2c-b6e8-110f7b28b3f2{fill:#d18600;stroke:#d18600;}.e858b8a9-ffc4-42c8-ad3f-7d93dbadcc28{fill:#0d65bd;stroke:#0d65bd;}</style></defs><title>find_support</title><g id="a91975a9-8b8b-41ec-969d-95b451ee2bb4" data-name="Layer 2"><g id="a9d361f9-9a90-4005-aa76-861f5365cbfc" data-name="Grid"><rect class="a0b3b81c-1ca9-4b71-a4c0-542c2d2a8667" width="240" height="240" rx="18.95"/><path class="a2587a9e-55e7-4ec1-9a45-fa7e4b22775a" d="M158.76,197a191.27,191.27,0,0,1-41.94-34.26c-10-10.79-19.12-23.41-22.16-38.44S96.25,91.5,108.43,84c9.06-5.59,20.79-4.49,29.73,1.32s15.25,15.79,18.7,26.58c6.95-16.24,21.55-26.54,37.14-31.72,6.87-2.28,14.7-3,20.88,1,7,4.53,10.08,14.08,10.12,23,.09,20.59-13,38.33-27.22,51.71S169.13,179.88,158.76,197Z"/><path class="a4db8e96-312a-4d2c-b6e8-110f7b28b3f2" d="M101.7,128.62A165.16,165.16,0,0,1,65,101.4c-8.73-8.57-16.75-18.6-19.41-30.54s1.39-26.07,12.07-32c7.93-4.43,18.2-3.56,26,1.06S97,52.41,100,61c6.09-12.9,18.88-21.08,32.54-25.2,6-1.81,12.88-2.4,18.29.79,6.1,3.59,8.83,11.18,8.87,18.26.07,16.36-11.42,30.47-23.85,41.1S110.79,115,101.7,128.62Z"/><path class="e858b8a9-ffc4-42c8-ad3f-7d93dbadcc28" d="M69.7,188.62A165.16,165.16,0,0,1,33,161.4c-8.73-8.57-16.75-18.6-19.41-30.54s1.39-26.07,12.07-32.05c7.93-4.43,18.2-3.56,26,1.06S65,112.41,68,121c6.09-12.9,18.88-21.08,32.54-25.2,6-1.81,12.88-2.4,18.29.79,6.1,3.59,8.83,11.18,8.87,18.26.07,16.36-11.42,30.47-23.85,41.1S78.79,175,69.7,188.62Z"/></g></g></svg>