<svg xmlns="http://www.w3.org/2000/svg" xmlns:xlink="http://www.w3.org/1999/xlink" viewBox="0 0 1505 381"><defs><style>.a72614e2-b15c-4775-9773-df4fc976b4e7,.b6d2cec8-b868-49cb-86ee-d744fbd730ad,.e064ec96-7477-4f93-a52a-72457a09030e,.e4b0a46e-77d0-4e35-99d4-d45fa98fe618{fill:none;}.b531079a-2dd0-4b62-8a6a-ea9f3efdd669{fill:#d18600;}.a139f9c8-8775-402d-a69c-d897cc039554{fill:#520cb3;}.e4b0a46e-77d0-4e35-99d4-d45fa98fe618{stroke:#520cb3;}.a72614e2-b15c-4775-9773-df4fc976b4e7,.e064ec96-7477-4f93-a52a-72457a09030e,.e4b0a46e-77d0-4e35-99d4-d45fa98fe618{stroke-miterlimit:10;stroke-width:8px;}.a72614e2-b15c-4775-9773-df4fc976b4e7{stroke:#fc0;}.e064ec96-7477-4f93-a52a-72457a09030e{stroke:#0d65bd;}.e45255eb-804f-44bf-9b92-93bbf60e4226{clip-path:url(#a6c9dec6-0cb0-4f41-b947-a7dde9b5c7e4);}.b66fe316-1628-4300-9f5c-5fb9dd603fdb{fill:#0d65bd;}</style><clipPath id="a6c9dec6-0cb0-4f41-b947-a7dde9b5c7e4"><rect id="ad2e2a6a-6b55-4049-b48c-fb4b6405eaf0" data-name="SVGID" class="b6d2cec8-b868-49cb-86ee-d744fbd730ad" x="27" y="4" width="1474" height="349" rx="12"/></clipPath></defs><title>find_support_1</title><g id="ace4b1d1-1d73-4dd0-a0f3-6a04e1a8548e" data-name="Layer 2"><g id="fc9c97b2-2946-4077-bbb6-a65955ff091d" data-name="Grid"><circle class="b531079a-2dd0-4b62-8a6a-ea9f3efdd669" cx="893.11" cy="163.91" r="45.12"/><circle class="a139f9c8-8775-402d-a69c-d897cc039554" cx="986.87" cy="160.68" r="45.12"/><circle class="a139f9c8-8775-402d-a69c-d897cc039554" cx="562.61" cy="148.96" r="45.12"/><path class="b531079a-2dd0-4b62-8a6a-ea9f3efdd669" d="M506,117c-9.65-8.21-21.12-11.32-33.62-9.53-4,.58-6.23,5.68-5.23,9.23,1.2,4.3,5.18,5.82,9.22,5.24a24.56,24.56,0,0,1,19,5.67c7.31,6.22,18-4.34,10.61-10.61Z"/><path class="b531079a-2dd0-4b62-8a6a-ea9f3efdd669" d="M525.94,94.44a38,38,0,0,1-7.49-23.76c.23-9.66-14.77-9.65-15,0A51.39,51.39,0,0,0,513,102c2.38,3.31,6.5,4.83,10.26,2.69,3.27-1.86,5-7,2.69-10.26Z"/><path class="b531079a-2dd0-4b62-8a6a-ea9f3efdd669" d="M558.34,85.23a43.87,43.87,0,0,1,2-17.92c3-9.2-11.49-13.15-14.47-4a55.34,55.34,0,0,0-2.53,21.91c.36,4,3.19,7.5,7.5,7.5,3.78,0,7.86-3.44,7.5-7.5Z"/></g><g id="ad19d2df-2e83-4d7c-b808-7b6f80777a28" data-name="Sign Up Page"><rect id="ffdb642c-85c2-41f5-abc4-2b28da12ff11" data-name="SVGID" class="e4b0a46e-77d0-4e35-99d4-d45fa98fe618" x="27" y="4" width="1474" height="349" rx="12"/><rect id="be2f877e-45ee-4ce6-895b-1e413d92ad7c" data-name="SVGID" class="a72614e2-b15c-4775-9773-df4fc976b4e7" x="15.5" y="16" width="1474" height="349" rx="12"/><rect id="e5b41f50-61e8-41a0-80d8-41b976cd4f1c" data-name="SVGID" class="e064ec96-7477-4f93-a52a-72457a09030e" x="4" y="28" width="1474" height="349" rx="12"/><g class="e45255eb-804f-44bf-9b92-93bbf60e4226"><path class="b531079a-2dd0-4b62-8a6a-ea9f3efdd669" d="M812.36,234.93c-12.13-17.55-28.29-32.37-38-51.37C760,155.36,761.65,122,763.66,90.4c.49-7.71,1.11-15.85,7.13-21.59a11.53,11.53,0,0,1,11.91-2.73c8.64,3.27,12.74,14.49,11.38,23.41-3.91,25.5-2.57,51.57,8.2,75s27,44.4,51.94,50.81c32.54,8.34,71.58-4.7,97.78,16.3,17.34,13.9,22.14,37.85,25.79,59.76l8.29,49.68c1.81,10.88,1.66,25.37-9,28.76a14.17,14.17,0,0,1-14.76-4.41c-7.61-8.61-7-19.64-8-30.1-1.93-19.61-7.74-45.09-19.82-62.16a4,4,0,0,0-7.3,2.54c1.23,29.55.4,64.68,2.27,92.5a153.25,153.25,0,0,1-71.64-.16c-30.21-7.37-20.37-31.1-20.62-54.26A142.13,142.13,0,0,0,812.36,234.93Z"/><path class="a139f9c8-8775-402d-a69c-d897cc039554" d="M912,231.7c-12.13-17.55-28.29-32.38-38-51.38-14.39-28.2-12.72-61.56-10.71-93.15.49-7.71,1.11-15.85,7.13-21.59a11.49,11.49,0,0,1,11.91-2.73c8.64,3.26,12.74,14.48,11.38,23.41-3.91,25.5-2.57,51.56,8.2,75s27,44.4,51.94,50.81c32.54,8.34,71.58-4.7,97.78,16.31,17.34,13.89,22.14,37.84,25.79,59.75l8.29,49.69c1.81,10.87,1.66,25.37-9,28.76a14.18,14.18,0,0,1-14.76-4.42c-7.61-8.61-7-19.64-8-30.1-1.93-19.61-7.74-45.09-19.82-62.15a4,4,0,0,0-7.3,2.54c1.23,29.54.4,64.68,2.27,92.49a153.29,153.29,0,0,1-71.65-.15c-30.2-7.37-20.37-31.11-20.61-54.26A142.11,142.11,0,0,0,912,231.7Z"/><path class="b66fe316-1628-4300-9f5c-5fb9dd603fdb" d="M720.94,222.32c-12.13-17.55-28.28-32.37-38-51.38-14.39-28.19-12.72-61.55-10.71-93.15.49-7.71,1.11-15.85,7.13-21.59a11.53,11.53,0,0,1,11.91-2.73C699.92,56.74,704,68,702.66,76.88c-3.9,25.5-2.56,51.56,8.21,75s27,44.4,51.94,50.8C795.34,211,834.38,198,860.59,219c17.33,13.9,22.13,37.84,25.79,59.76l8.28,49.68c1.82,10.87,1.66,25.37-9,28.76a14.15,14.15,0,0,1-14.75-4.41c-7.62-8.61-7-19.65-8-30.1-1.93-19.62-7.75-45.09-19.83-62.16a4,4,0,0,0-7.29,2.54c1.23,29.55.4,64.68,2.27,92.49a153.16,153.16,0,0,1-71.65-.15C736.14,348,746,324.3,745.73,301.15A142.14,142.14,0,0,0,720.94,222.32Z"/><path class="a139f9c8-8775-402d-a69c-d897cc039554" d="M629.83,222.32C642.36,204.77,659,190,669.06,170.94c14.86-28.19,13.14-61.55,11.06-93.15-.51-7.71-1.15-15.85-7.36-21.59a12.19,12.19,0,0,0-12.3-2.73C651.54,56.74,647.3,68,648.71,76.88c4,25.5,2.65,51.56-8.47,75s-27.84,44.4-53.65,50.8C553,211,512.67,198,485.61,219c-17.91,13.9-22.86,37.84-26.64,59.76l-8.56,49.68c-1.87,10.87-1.71,25.37,9.33,28.76A14.93,14.93,0,0,0,475,352.79c7.86-8.61,7.24-19.65,8.31-30.1,2-19.62,8-45.09,20.47-62.16,2.38-3.26,7.71-1.45,7.54,2.54-1.28,29.55-.42,64.68-2.35,92.49a163.19,163.19,0,0,0,74-.15c31.2-7.37,21-31.11,21.29-54.26A139,139,0,0,1,629.83,222.32Z"/></g><circle class="b66fe316-1628-4300-9f5c-5fb9dd603fdb" cx="791.15" cy="148.96" r="45.12"/></g></g></svg>