<svg xmlns="http://www.w3.org/2000/svg" xmlns:xlink="http://www.w3.org/1999/xlink" viewBox="0 0 305.57 299.35"><defs><style>.f0df77a2-e123-4ac2-b87f-6ccb8fe8fb86{fill:none;}.b11307af-acc9-4582-8f01-7ddbe237916a{fill:#fff;}.fc6bfb7d-31ec-46eb-8b08-165f1a563155{clip-path:url(#bda28e9c-d238-4e8d-88d0-29d33b05ebad);}.a78b893a-a438-45ca-985f-db7983fd611a{fill:#d18600;}.a4dfa5d5-63d7-48fe-8e9c-d23dcf943fb9{fill:#0d65bd;}</style><clipPath id="bda28e9c-d238-4e8d-88d0-29d33b05ebad" transform="translate(0 -3)"><rect class="f0df77a2-e123-4ac2-b87f-6ccb8fe8fb86" width="240" height="240" rx="12"/></clipPath></defs><title>get_involved</title><g id="bce8dc82-ea39-404c-a952-990e39374af8" data-name="Layer 2"><g id="f68b79ed-2ef7-4027-a847-b191c3c3bc44" data-name="Grid"><rect class="b11307af-acc9-4582-8f01-7ddbe237916a" width="240" height="240" rx="18.95"/><g class="fc6bfb7d-31ec-46eb-8b08-165f1a563155"><path class="a78b893a-a438-45ca-985f-db7983fd611a" d="M156.6,185.1c-10.35-15-24.13-27.63-32.41-43.84-12.28-24.06-10.86-52.52-9.14-79.48.42-6.58,1-13.53,6.08-18.42A9.83,9.83,0,0,1,131.3,41c7.36,2.78,10.87,12.35,9.7,20-3.33,21.76-2.19,44,7,64s23,37.88,44.32,43.35c27.76,7.12,61.07-4,83.43,13.92,14.79,11.85,18.89,32.29,22,51l7.08,42.4c1.54,9.27,1.41,21.64-7.71,24.53a12.07,12.07,0,0,1-12.59-3.76c-6.5-7.35-6-16.76-6.86-25.69-1.64-16.73-6.61-38.47-16.92-53a3.44,3.44,0,0,0-6.22,2.17c1.05,25.21.34,55.19,1.94,78.92a130.8,130.8,0,0,1-61.14-.13c-25.77-6.29-17.38-26.55-17.58-46.3A121.27,121.27,0,0,0,156.6,185.1Z" transform="translate(0 -3)"/><circle class="a4dfa5d5-63d7-48fe-8e9c-d23dcf943fb9" cx="138.5" cy="106.5" r="38.5"/><circle class="a78b893a-a438-45ca-985f-db7983fd611a" cx="225.5" cy="121.5" r="38.5"/><path class="a4dfa5d5-63d7-48fe-8e9c-d23dcf943fb9" d="M78.6,172.1c-10.35-15-24.13-27.63-32.41-43.84C33.91,104.2,35.33,75.74,37.05,48.78c.42-6.58,1-13.53,6.08-18.42A9.83,9.83,0,0,1,53.3,28c7.36,2.78,10.87,12.35,9.7,20-3.33,21.76-2.19,44,7,64s23,37.88,44.32,43.35c27.76,7.12,61.07-4,83.43,13.92,14.79,11.85,18.89,32.29,22,51l7.08,42.4c1.54,9.27,1.41,21.64-7.71,24.53a12.07,12.07,0,0,1-12.59-3.76c-6.5-7.35-6-16.76-6.86-25.69-1.64-16.73-6.61-38.47-16.92-53a3.44,3.44,0,0,0-6.22,2.17c1.05,25.21.34,55.19,1.94,78.92a130.8,130.8,0,0,1-61.14-.13c-25.77-6.29-17.38-26.55-17.58-46.3A121.27,121.27,0,0,0,78.6,172.1Z" transform="translate(0 -3)"/></g></g></g></svg>