<svg xmlns="http://www.w3.org/2000/svg" viewBox="0 0 240 240"><defs><style>.a4509483-d9ce-4097-bb17-2777b377e9c4{fill:#fff;}.b9eb0fa9-ea84-416e-a0bc-32e3ad7b67de{fill:#3b9dff;stroke:#3b9dff;}.b7a2df71-4eda-490f-86c7-8004551c0b82,.b9eb0fa9-ea84-416e-a0bc-32e3ad7b67de{stroke-miterlimit:10;stroke-width:2px;}.b7a2df71-4eda-490f-86c7-8004551c0b82{fill:#0d65bd;stroke:#0d65bd;}.b40fa601-f3da-4e20-a161-ba21d40d2312{fill:#520cb3;}.b8f7ec62-a049-4bbb-9e79-d9036d7ad313{fill:#d18600;}</style></defs><title>information</title><g id="abc650a3-de5c-4bd3-be34-a08abba846bd" data-name="Layer 2"><g id="f60d3bb6-2f70-40ea-aa0b-db766ff5eb00" data-name="Grid"><rect class="a4509483-d9ce-4097-bb17-2777b377e9c4" width="240" height="240" rx="18.95"/><path class="b9eb0fa9-ea84-416e-a0bc-32e3ad7b67de" d="M16,81.85v114a2.88,2.88,0,0,0,2,2.75l80.56,25.24a2.8,2.8,0,0,0,.86.13h41.13a2.94,2.94,0,0,0,.84-.12L225,198.62a2.88,2.88,0,0,0,2.05-2.76V81.78A2.88,2.88,0,0,0,223.35,79l-83,22.89a2.86,2.86,0,0,1-.77.1H98.41a2.84,2.84,0,0,1-.81-.12L19.69,79.08A2.88,2.88,0,0,0,16,81.85Z"/><rect class="b7a2df71-4eda-490f-86c7-8004551c0b82" x="99" y="102" width="43" height="122"/><path class="b40fa601-f3da-4e20-a161-ba21d40d2312" d="M98.53,95.26,30.35,58.09a1.49,1.49,0,0,0-2.06.71L22.72,71.65a1.48,1.48,0,0,0,.9,2L97.36,98A1.48,1.48,0,0,0,98.53,95.26Z"/><path class="b40fa601-f3da-4e20-a161-ba21d40d2312" d="M144.29,96.69l75.18-19.43a1.48,1.48,0,0,0,1-1.92l-4.71-13.19a1.5,1.5,0,0,0-2-.84L143.3,93.92A1.48,1.48,0,0,0,144.29,96.69Z"/><path class="b8f7ec62-a049-4bbb-9e79-d9036d7ad313" d="M96.9,61.51A89.19,89.19,0,0,0,77.47,44.06c-4-2.71-10-.78-12.32,3.23-2.58,4.43-.81,9.6,3.23,12.32a73.39,73.39,0,0,1,15.8,14.62c3.08,3.77,9.53,3.2,12.72,0,3.73-3.72,3.09-9,0-12.72Z"/><path class="b8f7ec62-a049-4bbb-9e79-d9036d7ad313" d="M129.34,64.74l.63-23c.32-11.59-17.68-11.58-18,0l-.63,23c-.32,11.59,17.68,11.58,18,0Z"/><path class="b8f7ec62-a049-4bbb-9e79-d9036d7ad313" d="M155.68,70.72a39.14,39.14,0,0,1,16.78-13.65c4.43-2,5.5-8.43,3.23-12.32-2.66-4.55-7.86-5.24-12.31-3.23a56.11,56.11,0,0,0-23.24,20.12c-2.72,4-.77,10,3.23,12.31,4.43,2.59,9.59.81,12.31-3.23Z"/></g></g></svg>