<svg xmlns="http://www.w3.org/2000/svg" viewBox="0 0 1505 381"><defs><style>.a5744459-2970-444c-bd40-5274cfc6475d,.b3e34b8d-0a06-4f1a-8e6a-399eb7fabd9f,.f10d8651-1634-4817-937b-fd0d44e7c87c,.f35fd89e-4589-4ef8-bdac-cc0638547e62,.f3a95abb-39ab-4679-b695-3f95bc233d59{fill:none;}.ab1bdd13-6edc-4999-a52a-555e41e3578c,.bb5b07b1-d0b3-4a3b-8ba7-2b6b8301c324,.f10d8651-1634-4817-937b-fd0d44e7c87c{stroke:#0d65bd;}.a1b1d921-dc11-49c4-88fa-6794e159e2ba,.ab1bdd13-6edc-4999-a52a-555e41e3578c,.b3e34b8d-0a06-4f1a-8e6a-399eb7fabd9f,.b89718bb-092c-49ea-a045-5777b330e506,.f10d8651-1634-4817-937b-fd0d44e7c87c,.f35fd89e-4589-4ef8-bdac-cc0638547e62{stroke-miterlimit:10;}.ad7a016e-9ae1-48a2-9dcd-a610c353e1f5,.b3e34b8d-0a06-4f1a-8e6a-399eb7fabd9f,.bb5b07b1-d0b3-4a3b-8ba7-2b6b8301c324,.e62be17f-6c55-4470-9365-b62990f16cc8,.f10d8651-1634-4817-937b-fd0d44e7c87c,.f35fd89e-4589-4ef8-bdac-cc0638547e62{stroke-width:8px;}.a98da762-be9f-446c-ab5b-972d8a5f62b1,.b89718bb-092c-49ea-a045-5777b330e506{fill:#3b9dff;}.a98da762-be9f-446c-ab5b-972d8a5f62b1,.b89718bb-092c-49ea-a045-5777b330e506,.f3a95abb-39ab-4679-b695-3f95bc233d59{stroke:#3b9dff;}.ab1bdd13-6edc-4999-a52a-555e41e3578c,.b89718bb-092c-49ea-a045-5777b330e506{stroke-width:2px;}.ab1bdd13-6edc-4999-a52a-555e41e3578c,.bb5b07b1-d0b3-4a3b-8ba7-2b6b8301c324{fill:#0d65bd;}.ad7a016e-9ae1-48a2-9dcd-a610c353e1f5,.b43a3294-4459-46af-bed9-78b780230388{fill:#520cb3;}.a7ed4f9e-5000-4226-adb0-8fdf2bc476df,.b60819c1-a84c-4062-871e-0571743d0ce9,.b8b89f32-a369-4fc0-a382-c38319799fbe{fill:#d18600;}.a5744459-2970-444c-bd40-5274cfc6475d,.ad7a016e-9ae1-48a2-9dcd-a610c353e1f5,.b8b89f32-a369-4fc0-a382-c38319799fbe,.f35fd89e-4589-4ef8-bdac-cc0638547e62{stroke:#520cb3;}.b3e34b8d-0a06-4f1a-8e6a-399eb7fabd9f{stroke:#fc0;}.a5744459-2970-444c-bd40-5274cfc6475d,.a98da762-be9f-446c-ab5b-972d8a5f62b1,.ad7a016e-9ae1-48a2-9dcd-a610c353e1f5,.b60819c1-a84c-4062-871e-0571743d0ce9,.b8b89f32-a369-4fc0-a382-c38319799fbe,.bb5b07b1-d0b3-4a3b-8ba7-2b6b8301c324,.e62be17f-6c55-4470-9365-b62990f16cc8,.e8b4a8c4-cf03-40c8-8b44-a0895275c1c0,.f02eab61-a2b3-4345-abf5-c153be5f3f2c,.f3a95abb-39ab-4679-b695-3f95bc233d59{stroke-linecap:round;stroke-linejoin:round;}.a5744459-2970-444c-bd40-5274cfc6475d,.b8b89f32-a369-4fc0-a382-c38319799fbe,.f3a95abb-39ab-4679-b695-3f95bc233d59{stroke-width:10px;}.b60819c1-a84c-4062-871e-0571743d0ce9{stroke:#d18600;}.e8b4a8c4-cf03-40c8-8b44-a0895275c1c0,.f02eab61-a2b3-4345-abf5-c153be5f3f2c{fill:#8e3dff;stroke:#8e3dff;}.f02eab61-a2b3-4345-abf5-c153be5f3f2c{stroke-width:9px;}.a1b1d921-dc11-49c4-88fa-6794e159e2ba,.e62be17f-6c55-4470-9365-b62990f16cc8{fill:#306;stroke:#306;}.a1b1d921-dc11-49c4-88fa-6794e159e2ba{stroke-width:4px;}</style></defs><title>information_desk</title><g id="b91e4776-c932-4e94-854b-4745916d00a5" data-name="Layer 2"><g id="e1beeaba-9e94-45bc-b701-90eb7b61c62b" data-name="Info. Illus."><line class="f10d8651-1634-4817-937b-fd0d44e7c87c" x1="4" y1="256" x2="1502" y2="256"/><path class="b89718bb-092c-49ea-a045-5777b330e506" d="M615,115.24V273.08a4,4,0,0,0,2.8,3.81l111.5,34.93a4,4,0,0,0,1.19.18h56.93a4.17,4.17,0,0,0,1.16-.17l115.63-35a4,4,0,0,0,2.84-3.82V115.16a4,4,0,0,0-5-3.85L787.15,143a4.23,4.23,0,0,1-1.06.14h-57A3.84,3.84,0,0,1,728,143L620.11,111.42A4,4,0,0,0,615,115.24Z"/><rect class="ab1bdd13-6edc-4999-a52a-555e41e3578c" x="729.88" y="143.14" width="59.52" height="168.86"/><path class="b43a3294-4459-46af-bed9-78b780230388" d="M734.74,136.82,634.32,82.07a1.47,1.47,0,0,0-2.06.71l-8.2,18.92a1.48,1.48,0,0,0,.89,2l108.62,35.83A1.48,1.48,0,0,0,734.74,136.82Z"/><path class="b43a3294-4459-46af-bed9-78b780230388" d="M786.5,137.36l110.73-28.61a1.48,1.48,0,0,0,1-1.93L891.32,87.4a1.5,1.5,0,0,0-2-.84l-103.79,48A1.48,1.48,0,0,0,786.5,137.36Z"/><path class="a7ed4f9e-5000-4226-adb0-8fdf2bc476df" d="M724.54,89.54a120.22,120.22,0,0,0-26.21-23.61c-9.64-6.47-18.66,9.11-9.08,15.55a104.81,104.81,0,0,1,22.56,20.78c3.08,3.77,9.53,3.2,12.73,0,3.72-3.72,3.08-9,0-12.72Z"/><path class="a7ed4f9e-5000-4226-adb0-8fdf2bc476df" d="M768.41,91.57l.88-31.81c.33-11.59-17.67-11.58-18,0l-.88,31.81c-.32,11.59,17.68,11.58,18,0Z"/><path class="a7ed4f9e-5000-4226-adb0-8fdf2bc476df" d="M805.35,98.1A57.24,57.24,0,0,1,829.82,78c4.43-2,5.5-8.43,3.23-12.31-2.67-4.56-7.87-5.24-12.32-3.23A74.09,74.09,0,0,0,789.81,89c-6.48,9.63,9.1,18.65,15.54,9.08Z"/><rect id="befb3e8f-2274-4881-ae89-45704724e262" data-name="SVGID" class="f35fd89e-4589-4ef8-bdac-cc0638547e62" x="27" y="4" width="1474" height="349" rx="12"/><rect id="b182a09e-5304-4b47-bc35-f41ace5a1211" data-name="SVGID" class="b3e34b8d-0a06-4f1a-8e6a-399eb7fabd9f" x="15.5" y="16" width="1474" height="349" rx="12"/><path class="bb5b07b1-d0b3-4a3b-8ba7-2b6b8301c324" d="M1301,198l-146,80s17,28,0,57l151-94S1328,212,1301,198Z"/><polygon class="ad7a016e-9ae1-48a2-9dcd-a610c353e1f5" points="1155.45 278.79 995 232 1145 169 1301 198 1155.45 278.79"/><line class="b8b89f32-a369-4fc0-a382-c38319799fbe" x1="1152" y1="335" x2="995" y2="279"/><path class="b60819c1-a84c-4062-871e-0571743d0ce9" d="M1005.35,247.24l139.28,41.41a7.19,7.19,0,0,1,4.4,3.68c3.21,6.4,9.45,21.9-1.53,28.17l-143.31-50.35a4,4,0,0,1-2.43-5.32c1.24-2.95,2.14-7.66,0-14A2.84,2.84,0,0,1,1005.35,247.24Z"/><path class="a98da762-be9f-446c-ab5b-972d8a5f62b1" d="M1188.5,213.5l75-56s13-1,0,34l-78,75S1198.5,242.5,1188.5,213.5Z"/><polygon class="e8b4a8c4-cf03-40c8-8b44-a0895275c1c0" points="1188.5 213.5 1022.5 194.5 1130.5 145.5 1264.5 155.5 1188.5 213.5"/><line class="f02eab61-a2b3-4345-abf5-c153be5f3f2c" x1="1182.89" y1="264.23" x2="1025.11" y2="239.77"/><path class="b60819c1-a84c-4062-871e-0571743d0ce9" d="M1034.5,204.5l144.8,15.65A5.57,5.57,0,0,1,1184,224c1.39,4.24,2.84,12.38,0,24.42a5.59,5.59,0,0,1-6.43,4.19l-134.3-25a5.53,5.53,0,0,1-4.49-6.21c.7-4.62.64-13.21-4.22-16.85"/><rect id="bc437490-f113-43ce-8e93-6e7b0983d421" data-name="SVGID" class="f10d8651-1634-4817-937b-fd0d44e7c87c" x="4" y="28" width="1474" height="349" rx="12"/><path class="a1b1d921-dc11-49c4-88fa-6794e159e2ba" d="M1139.5,155.5l129-44s13,1,0,36l-129,50S1151.5,173.5,1139.5,155.5Z"/><path class="b43a3294-4459-46af-bed9-78b780230388" d="M1142.7,154.86,1016,135.76a2.07,2.07,0,0,1-.14-4.07l138.82-31.13,109.41,7.54a2,2,0,0,1,.51,3.81Z"/><line class="e62be17f-6c55-4470-9365-b62990f16cc8" x1="1137" y1="197" x2="1015" y2="175"/><path class="a7ed4f9e-5000-4226-adb0-8fdf2bc476df" d="M1018,142l119,22s5,16,0,22l-116-20S1032,155,1018,142Z"/><path class="a7ed4f9e-5000-4226-adb0-8fdf2bc476df" d="M476.21,244H284.29a19.32,19.32,0,0,0-11,3.16c-7.77,5.52-19.3,17.25,5.08,26.84H476.21S449.89,257.58,476.21,244Z"/><path class="a5744459-2970-444c-bd40-5274cfc6475d" d="M503,234H267s-43,31,3,54H503"/><path class="a7ed4f9e-5000-4226-adb0-8fdf2bc476df" d="M452.67,199H303.39a16,16,0,0,0-8.55,2.27c-6,4-15,12.4,4,19.29H452.67S432.19,208.76,452.67,199Z"/><path class="f3a95abb-39ab-4679-b695-3f95bc233d59" d="M468.5,189H284.94s-33.44,24.11,2.34,42H468.5"/></g></g></svg>