<svg xmlns="http://www.w3.org/2000/svg" xmlns:xlink="http://www.w3.org/1999/xlink" viewBox="0 0 1484 696"><defs><style>.b359d160-ed78-45a1-8f18-4c41cd83a02f,.ba9c564c-cdfd-48cf-a77b-bcfeecaeaba6{fill:none;}.a49e527d-23a0-4960-851d-f7c182e25a22{fill:#fff;}.a49e527d-23a0-4960-851d-f7c182e25a22,.f846f0a4-b660-4525-aae0-d109b6d459a6{stroke:#0d65bd;}.a49e527d-23a0-4960-851d-f7c182e25a22,.b239f36f-7cfb-4075-99db-c0629ff3f3d4,.b359d160-ed78-45a1-8f18-4c41cd83a02f,.efff3b3f-7840-47f2-80ca-568ae72f90fc,.f6b3e5cc-5792-48a8-ac14-a9e0649c7945,.f846f0a4-b660-4525-aae0-d109b6d459a6{stroke-miterlimit:10;}.a49e527d-23a0-4960-851d-f7c182e25a22,.b239f36f-7cfb-4075-99db-c0629ff3f3d4,.f6b3e5cc-5792-48a8-ac14-a9e0649c7945,.f846f0a4-b660-4525-aae0-d109b6d459a6{stroke-width:10px;}.a2ac835c-1af9-42d3-a4b3-2264bf04f10a{clip-path:url(#b4b57bd9-e174-425b-962e-ca3df667759c);}.acba6b21-2628-4fa2-ae51-832b0fb236bc,.efff3b3f-7840-47f2-80ca-568ae72f90fc,.f6b3e5cc-5792-48a8-ac14-a9e0649c7945{fill:#f90;}.b359d160-ed78-45a1-8f18-4c41cd83a02f,.efff3b3f-7840-47f2-80ca-568ae72f90fc,.f6b3e5cc-5792-48a8-ac14-a9e0649c7945{stroke:#f90;}.b239f36f-7cfb-4075-99db-c0629ff3f3d4{fill:#520cb3;stroke:#520cb3;}.f846f0a4-b660-4525-aae0-d109b6d459a6{fill:#0d65bd;}.b359d160-ed78-45a1-8f18-4c41cd83a02f{stroke-width:5px;}</style><clipPath id="b4b57bd9-e174-425b-962e-ca3df667759c"><rect id="a4be2337-fa67-4620-b02f-34f497142887" data-name="SVGID" class="ba9c564c-cdfd-48cf-a77b-bcfeecaeaba6" x="5" y="89" width="1474" height="349" rx="12"/></clipPath></defs><title>Asset 12</title><g id="b6cd296b-16c5-427b-9776-a8261b90a3e9" data-name="Layer 2"><g id="f6b7b909-e1f7-460b-850a-43289982e612" data-name="Young People Illus."><rect id="ebf7400e-1f05-4ec0-8a46-067b19010865" data-name="SVGID" class="a49e527d-23a0-4960-851d-f7c182e25a22" x="5" y="89" width="1474" height="349" rx="12"/><g class="a2ac835c-1af9-42d3-a4b3-2264bf04f10a"><circle class="f6b3e5cc-5792-48a8-ac14-a9e0649c7945" cx="720.5" cy="348" r="343"/><circle class="b239f36f-7cfb-4075-99db-c0629ff3f3d4" cx="721.5" cy="327" r="261"/><circle class="f846f0a4-b660-4525-aae0-d109b6d459a6" cx="724" cy="315.5" r="207.5"/></g><circle class="efff3b3f-7840-47f2-80ca-568ae72f90fc" cx="719.44" cy="219.76" r="54.58"/><rect class="efff3b3f-7840-47f2-80ca-568ae72f90fc" x="654.12" y="282.31" width="138.94" height="158.79" rx="12"/><ellipse class="efff3b3f-7840-47f2-80ca-568ae72f90fc" cx="650.39" cy="219.05" rx="9.92" ry="26.05"/><ellipse class="efff3b3f-7840-47f2-80ca-568ae72f90fc" cx="790.58" cy="219.05" rx="9.92" ry="26.05"/><path class="b359d160-ed78-45a1-8f18-4c41cd83a02f" d="M648.91,211.79a71.15,71.15,0,1,1,142.29,0"/><path class="acba6b21-2628-4fa2-ae51-832b0fb236bc" d="M669,307.56c-13.81-10.35-27-24-31.48-41.14-3.53-13.59-.51-31,11.58-39.51,4-2.81,5.83-7.86,3.22-12.32-2.29-3.91-8.32-6.05-12.31-3.23-18.25,12.92-24.82,35.74-20.47,57.16,4.69,23.08,22.21,41,40.37,54.58,3.89,2.91,10.06.63,12.31-3.23,2.69-4.6.68-9.39-3.22-12.31Z"/><path class="acba6b21-2628-4fa2-ae51-832b0fb236bc" d="M768.78,328c46.34-12,84.21-51.61,93.48-98.69,1.26-6.35-1.8-12.95-8.38-14.76-5.89-1.62-13.5,2-14.76,8.38-7.75,39.35-38,71.88-76.72,81.92-14.94,3.88-8.6,27,6.38,23.15Z"/></g></g></svg>